<?xml version="1.0" encoding="UTF-8" standalone="no"?>
<svg xmlns="http://www.w3.org/2000/svg" width="512" height="512" viewBox="0 0 512 512">
  <!-- 背景圆 -->
  <circle cx="256" cy="256" r="240" fill="#10111E"/>
  
  <!-- 外环 -->
  <g transform="rotate(0 256 256)">
    <path d="M256 48 A 208 208 0 0 1 464 256" stroke="#4F6FFF" stroke-width="16" fill="none"/>
    <path d="M464 256 A 208 208 0 0 1 256 464" stroke="#8453DC" stroke-width="16" fill="none"/>
    <path d="M256 464 A 208 208 0 0 1 48 256" stroke="#4F6FFF" stroke-width="16" fill="none"/>
    <path d="M48 256 A 208 208 0 0 1 256 48" stroke="#8453DC" stroke-width="16" fill="none"/>
  </g>
  
  <!-- 内部放射线 -->
  <g stroke="#8453DC" stroke-width="12">
    <line x1="256" y1="256" x2="200" y2="150" />
    <line x1="256" y1="256" x2="356" y2="200" />
    <line x1="256" y1="256" x2="300" y2="350" />
    <line x1="256" y1="256" x2="160" y2="300" />
  </g>
  
  <!-- 中心圆 -->
  <circle cx="256" cy="256" r="64" fill="#4F6FFF"/>
  
  <!-- 传输箭头 -->
  <g fill="white">
    <!-- 左箭头 -->
    <path d="M236 226 L196 256 L236 286 L236 266 L276 266 L276 246 L236 246 Z" />
    <!-- 右箭头 -->
    <path d="M276 226 L316 256 L276 286 L276 266 L236 266 L236 246 L276 246 Z" />
  </g>
  
  <!-- 光晕效果 -->
  <circle cx="256" cy="256" r="140" fill="url(#grad1)" opacity="0.2"/>
  
  <!-- 渐变定义 -->
  <defs>
    <radialGradient id="grad1" cx="50%" cy="50%" r="50%" fx="50%" fy="50%">
      <stop offset="0%" style="stop-color:#8453DC;stop-opacity:0.8" />
      <stop offset="100%" style="stop-color:#4F6FFF;stop-opacity:0" />
    </radialGradient>
  </defs>
</svg> 